<svg width="380" height="105" viewBox="0 0 380 105" fill="none" xmlns="http://www.w3.org/2000/svg">
<defs>
  <linearGradient id="gold" x1="0" y1="0" x2="0" y2="1">
    <stop offset="0%" stop-color="#ffd97a"/>
    <stop offset="40%" stop-color="#c9a962"/>
    <stop offset="100%" stop-color="#a68b4b"/>
  </linearGradient>
</defs>
<path d="M185.847 2.25C188.02 2.25 189.335 4.65096 188.165 6.48145L151.447 63.9111C151.318 64.1122 151.25 64.3463 151.25 64.585V101.5C151.25 103.019 150.019 104.25 148.5 104.25H131.49C129.977 104.25 128.748 103.028 128.74 101.515L128.535 62.0654C128.532 61.561 128.668 61.0651 128.928 60.6328L163.275 3.58203C163.772 2.75572 164.666 2.25002 165.63 2.25H185.847Z" fill="url(#gold)"/>
<path d="M113.904 0.75C114.843 0.750136 115.717 1.22924 116.222 2.02051L129.935 23.5039C130.518 24.4178 130.51 25.5893 129.914 26.4951L119.827 41.8281C118.73 43.4953 116.278 43.4755 115.208 41.791L91.8193 4.97461C90.6563 3.14389 91.9708 0.750303 94.1396 0.75H113.904Z" fill="url(#gold)"/>
<path d="M72.2363 0.75C72.9126 0.750112 73.5653 0.999322 74.0693 1.4502L82.334 8.84473C82.917 9.36641 83.25 10.1122 83.25 10.8945V66C83.25 67.5188 82.0188 68.75 80.5 68.75H24.5C23.8096 68.75 23.25 69.3096 23.25 70V100C23.25 101.519 22.0188 102.75 20.5 102.75H3.5C1.98122 102.75 0.75 101.519 0.75 100V48.5C0.75 46.9812 1.98122 45.75 3.5 45.75H59C59.6904 45.75 60.25 45.1904 60.25 44.5V24.5C60.25 23.8096 59.6904 23.25 59 23.25H3.5C1.98122 23.25 0.75 22.0188 0.75 20.5V3.5C0.75 1.98122 1.98122 0.75 3.5 0.75H72.2363Z" fill="url(#gold)"/>
<path d="M268.672 0.75C269.401 0.750081 270.101 1.04001 270.616 1.55566L280.444 11.3838C280.96 11.8994 281.25 12.5989 281.25 13.3281V66C281.25 67.5188 280.019 68.75 278.5 68.75H266.04C265.054 68.75 264.457 69.8377 264.985 70.6699L282.681 98.5254C283.844 100.356 282.529 102.75 280.36 102.75H260.588C259.655 102.75 258.786 102.277 258.279 101.494L237.461 69.3213C237.231 68.9653 236.836 68.7501 236.412 68.75H222.5C221.81 68.75 221.25 69.3096 221.25 70V100C221.25 101.519 220.019 102.75 218.5 102.75H201.5C199.981 102.75 198.75 101.519 198.75 100V48.5C198.75 46.9812 199.981 45.75 201.5 45.75H257C257.69 45.75 258.25 45.1904 258.25 44.5V24.5C258.25 23.8096 257.69 23.25 257 23.25H201.5C199.981 23.25 198.75 22.0188 198.75 20.5V3.5C198.75 1.98122 199.981 0.75 201.5 0.75H268.672Z" fill="url(#gold)"/>
<path d="M371.624 1.75C372.392 1.75 373.125 2.07079 373.646 2.63477L378.521 7.91699C378.989 8.42497 379.25 9.09093 379.25 9.78223V21.5C379.25 23.0188 378.019 24.25 376.5 24.25H303.5C301.981 24.25 300.75 23.0188 300.75 21.5V4.5C300.75 2.98122 301.981 1.75 303.5 1.75H371.624Z" fill="url(#gold)"/>
<rect x="300.75" y="40.75" width="70.5" height="22.5" rx="2.75" fill="url(#gold)"/>
<rect x="300.75" y="80.75" width="78.5" height="22.5" rx="2.75" fill="url(#gold)"/>
</svg>
